<svg width="16" height="16" viewBox="0 0 16 16" fill="none" xmlns="http://www.w3.org/2000/svg">
<path d="M5.33366 10.6667H4.00033C3.6467 10.6667 3.30756 10.5262 3.05752 10.2761C2.80747 10.0261 2.66699 9.68695 2.66699 9.33332V3.99999C2.66699 3.64637 2.80747 3.30723 3.05752 3.05718C3.30756 2.80713 3.6467 2.66666 4.00033 2.66666H9.33366C9.68728 2.66666 10.0264 2.80713 10.2765 3.05718C10.5265 3.30723 10.667 3.64637 10.667 3.99999V5.33332M6.66699 13.3333H12.0003C12.3539 13.3333 12.6931 13.1928 12.9431 12.9428C13.1932 12.6928 13.3337 12.3536 13.3337 12V6.66666C13.3337 6.31303 13.1932 5.9739 12.9431 5.72385C12.6931 5.4738 12.3539 5.33332 12.0003 5.33332H6.66699C6.31337 5.33332 5.97423 5.4738 5.72418 5.72385C5.47413 5.9739 5.33366 6.31303 5.33366 6.66666V12C5.33366 12.3536 5.47413 12.6928 5.72418 12.9428C5.97423 13.1928 6.31337 13.3333 6.66699 13.3333Z" stroke="#0092B8" stroke-width="1.33333" stroke-linecap="round" stroke-linejoin="round"/>
</svg>
